# 3ds Max Wavefront OBJ Exporter v0.99 - (c)2007 guruware
# File Created: 19.01.2022 05:35:39

mtllib ??.mtl

#
# object eb_metal_shelf_01_eb_metal_shelf_01
#

v  -47.9830 0.0000 1.4655
v  -48.7534 0.0000 0.4050
v  -48.7534 160.5282 0.4050
v  -47.9830 160.5282 1.4655
v  -50.0000 0.0000 -0.0000
v  -50.0000 160.5282 -0.0000
v  -51.2466 0.0000 0.4050
v  -51.2466 160.5282 0.4050
v  -52.0170 0.0000 1.4655
v  -52.0170 160.5282 1.4655
v  -52.0170 0.0000 2.7762
v  -52.0170 160.5282 2.7762
v  -51.2466 0.0000 3.8366
v  -51.2466 160.5282 3.8366
v  -50.0000 0.0000 4.2417
v  -50.0000 160.5282 4.2417
v  -48.7534 0.0000 3.8366
v  -48.7534 160.5282 3.8366
v  -47.9830 0.0000 2.7762
v  -47.9830 160.5282 2.7762
v  -50.0000 0.0000 2.1208
v  -50.0000 160.5282 2.1208
v  -47.9830 0.0000 36.2287
v  -48.7534 0.0000 35.1682
v  -48.7534 160.5282 35.1682
v  -47.9830 160.5282 36.2287
v  -50.0000 0.0000 34.7632
v  -50.0000 160.5282 34.7632
v  -51.2466 0.0000 35.1682
v  -51.2466 160.5282 35.1682
v  -52.0170 0.0000 36.2287
v  -52.0170 160.5282 36.2287
v  -52.0170 0.0000 37.5394
v  -52.0170 160.5282 37.5394
v  -51.2466 0.0000 38.5998
v  -51.2466 160.5282 38.5998
v  -50.0000 0.0000 39.0049
v  -50.0000 160.5282 39.0049
v  -48.7534 0.0000 38.5998
v  -48.7534 160.5282 38.5998
v  -47.9830 0.0000 37.5394
v  -47.9830 160.5282 37.5394
v  -50.0000 0.0000 36.8840
v  -50.0000 160.5282 36.8840
v  47.9830 0.0000 37.5394
v  48.7534 0.0000 38.5998
v  48.7534 160.5282 38.5998
v  47.9830 160.5282 37.5394
v  50.0000 0.0000 39.0049
v  50.0000 160.5282 39.0049
v  51.2466 0.0000 38.5998
v  51.2466 160.5282 38.5998
v  52.0170 0.0000 37.5394
v  52.0170 160.5282 37.5394
v  52.0170 0.0000 36.2287
v  52.0170 160.5282 36.2287
v  51.2466 0.0000 35.1682
v  51.2466 160.5282 35.1682
v  50.0000 0.0000 34.7632
v  50.0000 160.5282 34.7632
v  48.7534 0.0000 35.1682
v  48.7534 160.5282 35.1682
v  47.9830 0.0000 36.2287
v  47.9830 160.5282 36.2287
v  50.0000 0.0000 36.8840
v  50.0000 160.5282 36.8840
v  47.9830 0.0000 2.7762
v  48.7534 0.0000 3.8366
v  48.7534 160.5282 3.8366
v  47.9830 160.5282 2.7762
v  50.0000 0.0000 4.2417
v  50.0000 160.5282 4.2417
v  51.2466 0.0000 3.8366
v  51.2466 160.5282 3.8366
v  52.0170 0.0000 2.7762
v  52.0170 160.5282 2.7762
v  52.0170 0.0000 1.4655
v  52.0170 160.5282 1.4655
v  51.2466 0.0000 0.4050
v  51.2466 160.5282 0.4050
v  50.0000 0.0000 -0.0000
v  50.0000 160.5282 -0.0000
v  48.7534 0.0000 0.4050
v  48.7534 160.5282 0.4050
v  47.9830 0.0000 1.4655
v  47.9830 160.5282 1.4655
v  50.0000 0.0000 2.1208
v  50.0000 160.5282 2.1208
v  47.2846 153.5771 34.8988
v  47.2846 153.5771 4.1370
v  -47.2377 153.5771 4.1370
v  -47.2377 153.5771 34.8988
v  49.7846 153.0153 37.3988
v  -49.7377 153.0153 37.3988
v  -47.2377 153.0153 34.8988
v  47.2846 153.0153 34.8988
v  -49.7377 153.0153 1.6370
v  49.7846 153.0153 1.6370
v  47.2846 153.0153 4.1370
v  -47.2377 153.0153 4.1370
v  -47.2377 153.9771 34.8988
v  -49.7377 153.9771 37.3988
v  49.7846 153.9771 37.3988
v  47.2846 153.9771 34.8988
v  47.2846 153.9771 4.1370
v  49.7846 153.9771 1.6370
v  -49.7377 153.9771 1.6370
v  -47.2377 153.9771 4.1370
v  47.2846 117.8736 34.8988
v  47.2846 117.8736 4.1370
v  -47.2377 117.8736 4.1370
v  -47.2377 117.8736 34.8988
v  49.7846 117.3119 37.3988
v  -49.7377 117.3119 37.3988
v  -47.2377 117.3119 34.8988
v  47.2846 117.3119 34.8988
v  -49.7377 117.3119 1.6370
v  49.7846 117.3119 1.6370
v  47.2846 117.3119 4.1370
v  -47.2377 117.3119 4.1370
v  -47.2377 118.2737 34.8988
v  -49.7377 118.2737 37.3988
v  49.7846 118.2737 37.3988
v  47.2846 118.2737 34.8988
v  47.2846 118.2737 4.1370
v  49.7846 118.2737 1.6370
v  -49.7377 118.2737 1.6370
v  -47.2377 118.2737 4.1370
v  -47.2377 82.1702 34.8988
v  47.2846 82.1702 34.8988
v  47.2846 82.1702 4.1370
v  -47.2377 82.1702 4.1370
v  -47.2377 81.6084 4.1370
v  -49.7377 81.6084 1.6370
v  49.7846 81.6084 1.6370
v  47.2846 81.6084 4.1370
v  47.2846 81.6084 34.8988
v  49.7846 81.6084 37.3988
v  -49.7377 81.6084 37.3988
v  -47.2377 81.6084 34.8988
v  49.7846 82.5703 1.6370
v  -49.7377 82.5703 1.6370
v  -47.2377 82.5703 4.1370
v  47.2846 82.5703 4.1370
v  -49.7377 82.5703 37.3988
v  49.7846 82.5703 37.3988
v  47.2846 82.5703 34.8988
v  -47.2377 82.5703 34.8988
v  -47.2377 46.4668 4.1370
v  -47.2377 46.4668 34.8988
v  47.2846 46.4668 34.8988
v  47.2846 46.4668 4.1370
v  -49.7377 45.9050 1.6370
v  49.7846 45.9050 1.6370
v  47.2846 45.9050 4.1370
v  -47.2377 45.9050 4.1370
v  49.7846 45.9050 37.3988
v  -49.7377 45.9050 37.3988
v  -47.2377 45.9050 34.8988
v  47.2846 45.9050 34.8988
v  47.2846 46.8668 4.1370
v  49.7846 46.8668 1.6370
v  -49.7377 46.8668 1.6370
v  -47.2377 46.8668 4.1370
v  -47.2377 46.8668 34.8988
v  -49.7377 46.8668 37.3988
v  49.7846 46.8668 37.3988
v  47.2846 46.8668 34.8988
v  47.2846 10.7633 34.8988
v  47.2846 10.7633 4.1370
v  -47.2377 10.7633 4.1370
v  -47.2377 10.7633 34.8988
v  49.7846 10.2016 37.3988
v  -49.7377 10.2016 37.3988
v  -47.2377 10.2016 34.8988
v  47.2846 10.2016 34.8988
v  -49.7377 10.2016 1.6370
v  49.7846 10.2016 1.6370
v  47.2846 10.2016 4.1370
v  -47.2377 10.2016 4.1370
v  -47.2377 11.1634 34.8988
v  -49.7377 11.1634 37.3988
v  49.7846 11.1634 37.3988
v  47.2846 11.1634 34.8988
v  47.2846 11.1634 4.1370
v  49.7846 11.1634 1.6370
v  -49.7377 11.1634 1.6370
v  -47.2377 11.1634 4.1370
# 188 vertices

vn 0.9511 0.0000 -0.3090
vn 0.5878 0.0000 -0.8090
vn 0.0000 0.0000 -1.0000
vn -0.5878 0.0000 -0.8090
vn -0.9511 0.0000 -0.3090
vn -0.9511 0.0000 0.3090
vn -0.5878 0.0000 0.8090
vn 0.0000 0.0000 1.0000
vn 0.5878 0.0000 0.8090
vn 0.9511 0.0000 0.3090
vn 0.0000 -1.0000 0.0000
vn 0.0000 1.0000 0.0000
vn 0.0000 1.0000 -0.0000
vn 0.0000 -1.0000 -0.0000
vn 1.0000 0.0000 0.0000
vn -1.0000 0.0000 0.0000
# 16 vertex normals

vt 0.0762 0.0093 0.0000
vt 0.0825 0.0093 0.0000
vt 0.0825 0.9936 0.0000
vt 0.0762 0.9936 0.0000
vt 0.0887 0.0093 0.0000
vt 0.0887 0.9936 0.0000
vt 0.0950 0.0093 0.0000
vt 0.0950 0.9936 0.0000
vt 0.1013 0.0093 0.0000
vt 0.1013 0.9936 0.0000
vt 0.1075 0.0093 0.0000
vt 0.1075 0.9936 0.0000
vt 0.1138 0.0093 0.0000
vt 0.1138 0.9936 0.0000
vt 0.1200 0.0093 0.0000
vt 0.1200 0.9936 0.0000
vt 0.1263 0.0093 0.0000
vt 0.1263 0.9936 0.0000
vt 0.1326 0.0093 0.0000
vt 0.1326 0.9936 0.0000
vt 0.1388 0.0093 0.0000
vt 0.1388 0.9936 0.0000
vt 0.6036 0.9575 0.0000
vt 0.6069 0.9676 0.0000
vt 0.5899 0.9670 0.0000
vt 0.5950 0.9512 0.0000
vt 0.5843 0.9512 0.0000
vt 0.5757 0.9575 0.0000
vt 0.5724 0.9676 0.0000
vt 0.5757 0.9778 0.0000
vt 0.5843 0.9840 0.0000
vt 0.5950 0.9840 0.0000
vt 0.6036 0.9778 0.0000
vt 0.6520 0.9692 0.0000
vt 0.6661 0.9796 0.0000
vt 0.6576 0.9861 0.0000
vt 0.6470 0.9864 0.0000
vt 0.6382 0.9804 0.0000
vt 0.6346 0.9704 0.0000
vt 0.6376 0.9602 0.0000
vt 0.6461 0.9537 0.0000
vt 0.6567 0.9534 0.0000
vt 0.6655 0.9594 0.0000
vt 0.6691 0.9694 0.0000
vt 0.0077 0.0093 0.0000
vt 0.0140 0.0093 0.0000
vt 0.0140 0.9936 0.0000
vt 0.0077 0.9936 0.0000
vt 0.0202 0.0093 0.0000
vt 0.0202 0.9936 0.0000
vt 0.0265 0.0093 0.0000
vt 0.0265 0.9936 0.0000
vt 0.0328 0.0093 0.0000
vt 0.0328 0.9936 0.0000
vt 0.0390 0.0093 0.0000
vt 0.0390 0.9936 0.0000
vt 0.0453 0.0093 0.0000
vt 0.0453 0.9936 0.0000
vt 0.0515 0.0093 0.0000
vt 0.0515 0.9936 0.0000
vt 0.0578 0.0093 0.0000
vt 0.0578 0.9936 0.0000
vt 0.0640 0.0093 0.0000
vt 0.0640 0.9936 0.0000
vt 0.0703 0.0093 0.0000
vt 0.0703 0.9936 0.0000
vt 0.3482 0.9615 0.0000
vt 0.3515 0.9716 0.0000
vt 0.3345 0.9710 0.0000
vt 0.3396 0.9552 0.0000
vt 0.3290 0.9552 0.0000
vt 0.3204 0.9615 0.0000
vt 0.3171 0.9716 0.0000
vt 0.3204 0.9817 0.0000
vt 0.3290 0.9880 0.0000
vt 0.3396 0.9880 0.0000
vt 0.3482 0.9817 0.0000
vt 0.3942 0.9686 0.0000
vt 0.4082 0.9790 0.0000
vt 0.3998 0.9855 0.0000
vt 0.3892 0.9858 0.0000
vt 0.3804 0.9798 0.0000
vt 0.3768 0.9698 0.0000
vt 0.3798 0.9596 0.0000
vt 0.3882 0.9531 0.0000
vt 0.3989 0.9528 0.0000
vt 0.4077 0.9588 0.0000
vt 0.4112 0.9688 0.0000
vt 0.2677 0.3053 0.0000
vt 0.2809 0.3461 0.0000
vt 0.2125 0.3435 0.0000
vt 0.2330 0.2802 0.0000
vt 0.1902 0.2802 0.0000
vt 0.1555 0.3053 0.0000
vt 0.1423 0.3461 0.0000
vt 0.1555 0.3868 0.0000
vt 0.1902 0.4120 0.0000
vt 0.2330 0.4120 0.0000
vt 0.2677 0.3868 0.0000
vt 0.2146 0.4775 0.0000
vt 0.2711 0.5193 0.0000
vt 0.2371 0.5454 0.0000
vt 0.1943 0.5466 0.0000
vt 0.1589 0.5224 0.0000
vt 0.1446 0.4821 0.0000
vt 0.1566 0.4410 0.0000
vt 0.1906 0.4148 0.0000
vt 0.2334 0.4136 0.0000
vt 0.2688 0.4378 0.0000
vt 0.2832 0.4782 0.0000
vt 0.2677 0.0323 0.0000
vt 0.2809 0.0730 0.0000
vt 0.2125 0.0704 0.0000
vt 0.2330 0.0071 0.0000
vt 0.1902 0.0071 0.0000
vt 0.1555 0.0323 0.0000
vt 0.1423 0.0730 0.0000
vt 0.1555 0.1138 0.0000
vt 0.1902 0.1390 0.0000
vt 0.2330 0.1389 0.0000
vt 0.2677 0.1138 0.0000
vt 0.2146 0.2044 0.0000
vt 0.2711 0.2462 0.0000
vt 0.2371 0.2723 0.0000
vt 0.1943 0.2735 0.0000
vt 0.1589 0.2493 0.0000
vt 0.1446 0.2090 0.0000
vt 0.1566 0.1679 0.0000
vt 0.1906 0.1417 0.0000
vt 0.2334 0.1405 0.0000
vt 0.2688 0.1647 0.0000
vt 0.2832 0.2051 0.0000
vt 0.6732 0.0148 0.0000
vt 0.9890 0.0148 0.0000
vt 0.9890 0.9852 0.0000
vt 0.6732 0.9852 0.0000
vt 0.4723 0.0020 0.0000
vt 0.4723 0.9980 0.0000
vt 0.4473 0.9730 0.0000
vt 0.4473 0.0270 0.0000
vt 0.4171 0.9980 0.0000
vt 0.4171 0.0020 0.0000
vt 0.4421 0.0270 0.0000
vt 0.4421 0.9730 0.0000
vt 0.6335 0.3415 0.0000
vt 0.6335 0.6995 0.0000
vt 0.6085 0.6744 0.0000
vt 0.6085 0.3666 0.0000
vt 0.6386 0.6995 0.0000
vt 0.6386 0.3415 0.0000
vt 0.6636 0.3666 0.0000
vt 0.6636 0.6744 0.0000
vt 0.5046 0.9730 0.0000
vt 0.4796 0.9980 0.0000
vt 0.4796 0.0020 0.0000
vt 0.5046 0.0270 0.0000
vt 0.5129 0.0270 0.0000
vt 0.5379 0.0020 0.0000
vt 0.5379 0.9980 0.0000
vt 0.5129 0.9730 0.0000
vt 0.6391 0.0293 0.0000
vt 0.6642 0.0043 0.0000
vt 0.6642 0.3622 0.0000
vt 0.6391 0.3372 0.0000
vt 0.6335 0.3372 0.0000
vt 0.6085 0.3622 0.0000
vt 0.6085 0.0043 0.0000
vt 0.6335 0.0293 0.0000
vt 0.5875 0.0020 0.0000
vt 0.5875 0.9480 0.0000
vt 0.5779 0.9480 0.0000
vt 0.5779 0.0020 0.0000
vt 0.5450 0.9980 0.0000
vt 0.5450 0.0020 0.0000
vt 0.5547 0.0020 0.0000
vt 0.5547 0.9980 0.0000
vt 0.5943 0.9480 0.0000
vt 0.5943 0.0020 0.0000
vt 0.6039 0.0020 0.0000
vt 0.6039 0.9480 0.0000
vt 0.5711 0.0020 0.0000
vt 0.5711 0.9980 0.0000
vt 0.5615 0.9980 0.0000
vt 0.5615 0.0020 0.0000
vt 0.6348 0.9492 0.0000
vt 0.6348 0.7118 0.0000
vt 0.6422 0.7118 0.0000
vt 0.6422 0.9492 0.0000
vt 0.6095 0.9877 0.0000
vt 0.6095 0.7118 0.0000
vt 0.6169 0.7118 0.0000
vt 0.6169 0.9877 0.0000
vt 0.6475 0.9492 0.0000
vt 0.6475 0.7118 0.0000
vt 0.6549 0.7118 0.0000
vt 0.6549 0.9492 0.0000
vt 0.6221 0.9877 0.0000
vt 0.6221 0.7118 0.0000
vt 0.6296 0.7118 0.0000
vt 0.6296 0.9877 0.0000
vt 0.2165 0.0020 0.0000
vt 0.2165 0.9980 0.0000
vt 0.1914 0.9730 0.0000
vt 0.1914 0.0270 0.0000
vt 0.1612 0.9980 0.0000
vt 0.1612 0.0020 0.0000
vt 0.1863 0.0270 0.0000
vt 0.1863 0.9730 0.0000
vt 0.3776 0.3415 0.0000
vt 0.3776 0.6995 0.0000
vt 0.3526 0.6744 0.0000
vt 0.3526 0.3666 0.0000
vt 0.3827 0.6995 0.0000
vt 0.3827 0.3415 0.0000
vt 0.4077 0.3666 0.0000
vt 0.4077 0.6744 0.0000
vt 0.2488 0.9730 0.0000
vt 0.2237 0.9980 0.0000
vt 0.2237 0.0020 0.0000
vt 0.2488 0.0270 0.0000
vt 0.2570 0.0270 0.0000
vt 0.2821 0.0020 0.0000
vt 0.2821 0.9980 0.0000
vt 0.2570 0.9730 0.0000
vt 0.3833 0.0293 0.0000
vt 0.4083 0.0043 0.0000
vt 0.4083 0.3622 0.0000
vt 0.3833 0.3372 0.0000
vt 0.3777 0.3372 0.0000
vt 0.3527 0.3622 0.0000
vt 0.3527 0.0043 0.0000
vt 0.3777 0.0293 0.0000
vt 0.3316 0.0020 0.0000
vt 0.3316 0.9480 0.0000
vt 0.3220 0.9480 0.0000
vt 0.3220 0.0020 0.0000
vt 0.2892 0.9980 0.0000
vt 0.2892 0.0020 0.0000
vt 0.2988 0.0020 0.0000
vt 0.2988 0.9980 0.0000
vt 0.3384 0.9480 0.0000
vt 0.3384 0.0020 0.0000
vt 0.3481 0.0020 0.0000
vt 0.3481 0.9480 0.0000
vt 0.3152 0.0020 0.0000
vt 0.3152 0.9980 0.0000
vt 0.3056 0.9980 0.0000
vt 0.3056 0.0020 0.0000
vt 0.3789 0.9413 0.0000
vt 0.3789 0.7040 0.0000
vt 0.3863 0.7040 0.0000
vt 0.3863 0.9413 0.0000
vt 0.3536 0.9799 0.0000
vt 0.3536 0.7040 0.0000
vt 0.3610 0.7040 0.0000
vt 0.3610 0.9799 0.0000
vt 0.3916 0.9413 0.0000
vt 0.3916 0.7040 0.0000
vt 0.3990 0.7040 0.0000
vt 0.3990 0.9413 0.0000
vt 0.3663 0.9799 0.0000
vt 0.3663 0.7040 0.0000
vt 0.3737 0.7040 0.0000
vt 0.3737 0.9799 0.0000
# 264 texture coords

o eb_metal_shelf_01_eb_metal_shelf_01
g eb_metal_shelf_01_eb_metal_shelf_01
usemtl wire_224198087
s off
f 1/1/1 2/2/2 3/3/2 4/4/1 
f 2/2/2 5/5/3 6/6/3 3/3/2 
f 5/5/3 7/7/4 8/8/4 6/6/3 
f 7/7/4 9/9/5 10/10/5 8/8/4 
f 9/9/5 11/11/6 12/12/6 10/10/5 
f 11/11/6 13/13/7 14/14/7 12/12/6 
f 13/13/7 15/15/8 16/16/8 14/14/7 
f 15/15/8 17/17/9 18/18/9 16/16/8 
f 17/17/9 19/19/10 20/20/10 18/18/9 
f 19/19/10 1/21/1 4/22/1 20/20/10 
f 2/23/11 1/24/11 21/25/11 
f 5/26/11 2/23/11 21/25/11 
f 7/27/11 5/26/11 21/25/11 
f 9/28/11 7/27/11 21/25/11 
f 11/29/11 9/28/11 21/25/11 
f 13/30/11 11/29/11 21/25/11 
f 15/31/11 13/30/11 21/25/11 
f 17/32/11 15/31/11 21/25/11 
f 19/33/11 17/32/11 21/25/11 
f 1/24/11 19/33/11 21/25/11 
f 22/34/12 4/35/13 3/36/13 
f 22/34/12 3/36/13 6/37/12 
f 22/34/12 6/37/12 8/38/12 
f 22/34/12 8/38/12 10/39/12 
f 22/34/12 10/39/12 12/40/12 
f 22/34/12 12/40/12 14/41/12 
f 22/34/12 14/41/12 16/42/12 
f 22/34/12 16/42/12 18/43/12 
f 22/34/12 18/43/12 20/44/12 
f 22/34/12 20/44/12 4/35/13 
f 23/45/1 24/46/2 25/47/2 26/48/1 
f 24/46/2 27/49/3 28/50/3 25/47/2 
f 27/49/3 29/51/4 30/52/4 28/50/3 
f 29/51/4 31/53/5 32/54/5 30/52/4 
f 31/53/5 33/55/6 34/56/6 32/54/5 
f 33/55/6 35/57/7 36/58/7 34/56/6 
f 35/57/7 37/59/8 38/60/8 36/58/7 
f 37/59/8 39/61/9 40/62/9 38/60/8 
f 39/61/9 41/63/10 42/64/10 40/62/9 
f 41/63/10 23/65/1 26/66/1 42/64/10 
f 24/67/11 23/68/11 43/69/11 
f 27/70/11 24/67/11 43/69/11 
f 29/71/11 27/70/11 43/69/11 
f 31/72/11 29/71/11 43/69/11 
f 33/73/11 31/72/11 43/69/11 
f 35/74/11 33/73/11 43/69/11 
f 37/75/11 35/74/11 43/69/11 
f 39/76/11 37/75/11 43/69/11 
f 41/77/11 39/76/11 43/69/11 
f 23/68/11 41/77/11 43/69/11 
f 44/78/12 26/79/13 25/80/13 
f 44/78/12 25/80/13 28/81/12 
f 44/78/12 28/81/12 30/82/12 
f 44/78/12 30/82/12 32/83/12 
f 44/78/12 32/83/12 34/84/12 
f 44/78/12 34/84/12 36/85/12 
f 44/78/12 36/85/12 38/86/12 
f 44/78/12 38/86/12 40/87/12 
f 44/78/12 40/87/12 42/88/12 
f 44/78/12 42/88/12 26/79/13 
f 45/1/6 46/2/7 47/3/7 48/4/6 
f 46/2/7 49/5/8 50/6/8 47/3/7 
f 49/5/8 51/7/9 52/8/9 50/6/8 
f 51/7/9 53/9/10 54/10/10 52/8/9 
f 53/9/10 55/11/1 56/12/1 54/10/10 
f 55/11/1 57/13/2 58/14/2 56/12/1 
f 57/13/2 59/15/3 60/16/3 58/14/2 
f 59/15/3 61/17/4 62/18/4 60/16/3 
f 61/17/4 63/19/5 64/20/5 62/18/4 
f 63/19/5 45/21/6 48/22/6 64/20/5 
f 46/89/11 45/90/11 65/91/11 
f 49/92/11 46/89/11 65/91/11 
f 51/93/11 49/92/11 65/91/11 
f 53/94/11 51/93/11 65/91/11 
f 55/95/11 53/94/11 65/91/11 
f 57/96/11 55/95/11 65/91/11 
f 59/97/11 57/96/11 65/91/11 
f 61/98/11 59/97/11 65/91/11 
f 63/99/11 61/98/11 65/91/11 
f 45/90/11 63/99/11 65/91/11 
f 66/100/12 48/101/12 47/102/12 
f 66/100/12 47/102/12 50/103/12 
f 66/100/12 50/103/12 52/104/12 
f 66/100/12 52/104/12 54/105/12 
f 66/100/12 54/105/12 56/106/13 
f 66/100/12 56/106/13 58/107/13 
f 66/100/12 58/107/13 60/108/12 
f 66/100/12 60/108/12 62/109/12 
f 66/100/12 62/109/12 64/110/12 
f 66/100/12 64/110/12 48/101/12 
f 67/45/6 68/46/7 69/47/7 70/48/6 
f 68/46/7 71/49/8 72/50/8 69/47/7 
f 71/49/8 73/51/9 74/52/9 72/50/8 
f 73/51/9 75/53/10 76/54/10 74/52/9 
f 75/53/10 77/55/1 78/56/1 76/54/10 
f 77/55/1 79/57/2 80/58/2 78/56/1 
f 79/57/2 81/59/3 82/60/3 80/58/2 
f 81/59/3 83/61/4 84/62/4 82/60/3 
f 83/61/4 85/63/5 86/64/5 84/62/4 
f 85/63/5 67/65/6 70/66/6 86/64/5 
f 68/111/11 67/112/11 87/113/11 
f 71/114/11 68/111/11 87/113/11 
f 73/115/11 71/114/11 87/113/11 
f 75/116/11 73/115/11 87/113/11 
f 77/117/11 75/116/11 87/113/11 
f 79/118/11 77/117/11 87/113/11 
f 81/119/11 79/118/11 87/113/11 
f 83/120/11 81/119/11 87/113/11 
f 85/121/11 83/120/11 87/113/11 
f 67/112/11 85/121/11 87/113/11 
f 88/122/12 70/123/12 69/124/12 
f 88/122/12 69/124/12 72/125/12 
f 88/122/12 72/125/12 74/126/12 
f 88/122/12 74/126/12 76/127/12 
f 88/122/12 76/127/12 78/128/13 
f 88/122/12 78/128/13 80/129/13 
f 88/122/12 80/129/13 82/130/12 
f 88/122/12 82/130/12 84/131/12 
f 88/122/12 84/131/12 86/132/12 
f 88/122/12 86/132/12 70/123/12 
f 89/133/12 90/134/12 91/135/12 92/136/12 
f 93/137/11 94/138/11 95/139/11 96/140/11 
f 97/141/14 98/142/14 99/143/14 100/144/14 
f 94/145/11 97/146/14 100/147/14 95/148/11 
f 98/149/14 93/150/11 96/151/11 99/152/14 
f 101/153/13 102/154/13 103/155/13 104/156/13 
f 105/157/12 106/158/12 107/159/12 108/160/12 
f 108/161/12 107/162/12 102/163/13 101/164/13 
f 104/165/13 103/166/13 106/167/12 105/168/12 
f 96/169/3 95/170/3 101/171/3 104/172/3 
f 94/173/8 93/174/8 103/175/8 102/176/8 
f 100/177/8 99/178/8 105/179/8 108/180/8 
f 98/181/3 97/182/3 107/183/3 106/184/3 
f 95/185/15 100/186/15 108/187/15 101/188/15 
f 97/189/16 94/190/16 102/191/16 107/192/16 
f 99/193/16 96/194/16 104/195/16 105/196/16 
f 93/197/15 98/198/15 106/199/15 103/200/15 
f 109/133/12 110/134/12 111/135/12 112/136/12 
f 113/201/11 114/202/11 115/203/11 116/204/11 
f 117/205/14 118/206/14 119/207/14 120/208/14 
f 114/209/11 117/210/14 120/211/14 115/212/11 
f 118/213/14 113/214/11 116/215/11 119/216/14 
f 121/217/12 122/218/12 123/219/12 124/220/12 
f 125/221/13 126/222/13 127/223/13 128/224/13 
f 128/225/13 127/226/13 122/227/12 121/228/12 
f 124/229/12 123/230/12 126/231/13 125/232/13 
f 116/233/3 115/234/3 121/235/3 124/236/3 
f 114/237/8 113/238/8 123/239/8 122/240/8 
f 120/241/8 119/242/8 125/243/8 128/244/8 
f 118/245/3 117/246/3 127/247/3 126/248/3 
f 115/249/15 120/250/15 128/251/15 121/252/15 
f 117/253/16 114/254/16 122/255/16 127/256/16 
f 119/257/16 116/258/16 124/259/16 125/260/16 
f 113/261/15 118/262/15 126/263/15 123/264/15 
f 129/135/12 130/134/12 131/133/12 132/136/12 
f 133/203/11 134/202/11 135/201/11 136/204/11 
f 137/207/11 138/206/11 139/205/11 140/208/11 
f 140/211/11 139/210/11 134/209/11 133/212/11 
f 136/215/11 135/214/11 138/213/11 137/216/11 
f 141/219/13 142/218/13 143/217/13 144/220/13 
f 145/223/12 146/222/12 147/221/12 148/224/12 
f 142/227/13 145/226/12 148/225/12 143/228/13 
f 146/231/12 141/230/13 144/229/13 147/232/12 
f 143/235/8 133/234/8 136/233/8 144/236/8 
f 141/239/3 135/238/3 134/237/3 142/240/3 
f 147/243/3 137/242/3 140/241/3 148/244/3 
f 145/247/8 139/246/8 138/245/8 146/248/8 
f 148/251/15 140/250/15 133/249/15 143/252/15 
f 142/255/16 134/254/16 139/253/16 145/256/16 
f 144/259/16 136/258/16 137/257/16 147/260/16 
f 146/263/15 138/262/15 135/261/15 141/264/15 
f 149/133/12 150/134/12 151/135/12 152/136/12 
f 153/137/11 154/138/11 155/139/11 156/140/11 
f 157/141/11 158/142/11 159/143/11 160/144/11 
f 154/145/11 157/146/11 160/147/11 155/148/11 
f 158/149/11 153/150/11 156/151/11 159/152/11 
f 161/153/12 162/154/12 163/155/12 164/156/12 
f 165/157/12 166/158/12 167/159/12 168/160/12 
f 168/161/12 167/162/12 162/163/12 161/164/12 
f 164/165/12 163/166/12 166/167/12 165/168/12 
f 156/169/8 155/170/8 161/171/8 164/172/8 
f 154/173/3 153/174/3 163/175/3 162/176/3 
f 160/177/3 159/178/3 165/179/3 168/180/3 
f 158/181/8 157/182/8 167/183/8 166/184/8 
f 155/185/16 160/186/16 168/187/16 161/188/16 
f 157/189/15 154/190/15 162/191/15 167/192/15 
f 159/193/15 156/194/15 164/195/15 165/196/15 
f 153/197/16 158/198/16 166/199/16 163/200/16 
f 169/133/12 170/134/12 171/135/12 172/136/12 
f 173/137/11 174/138/11 175/139/11 176/140/11 
f 177/141/11 178/142/11 179/143/11 180/144/11 
f 174/145/11 177/146/11 180/147/11 175/148/11 
f 178/149/11 173/150/11 176/151/11 179/152/11 
f 181/153/12 182/154/12 183/155/12 184/156/12 
f 185/157/12 186/158/12 187/159/12 188/160/12 
f 188/161/12 187/162/12 182/163/12 181/164/12 
f 184/165/12 183/166/12 186/167/12 185/168/12 
f 176/169/3 175/170/3 181/171/3 184/172/3 
f 174/173/8 173/174/8 183/175/8 182/176/8 
f 180/177/8 179/178/8 185/179/8 188/180/8 
f 178/181/3 177/182/3 187/183/3 186/184/3 
f 175/185/15 180/186/15 188/187/15 181/188/15 
f 177/189/16 174/190/16 182/191/16 187/192/16 
f 179/193/16 176/194/16 184/195/16 185/196/16 
f 173/197/15 178/198/15 186/199/15 183/200/15 
# 125 polygons - 80 triangles

